<svg width="10" height="10" viewBox="0 0 10 10" fill="none" xmlns="http://www.w3.org/2000/svg">
<path d="M4.1875 7.53125L7.71875 4L6.84375 3.09375L4.1875 5.75L2.84375 4.4375L1.96875 5.3125L4.1875 7.53125ZM1.25 10C0.90625 10 0.612083 9.87771 0.3675 9.63312C0.122916 9.38854 0.000416667 9.09417 0 8.75V1.25C0 0.90625 0.1225 0.612083 0.3675 0.3675C0.6125 0.122917 0.906667 0.000416667 1.25 0H8.75C9.09375 0 9.38812 0.1225 9.63312 0.3675C9.87812 0.6125 10.0004 0.906667 10 1.25V8.75C10 9.09375 9.87771 9.38812 9.63312 9.63312C9.38854 9.87812 9.09417 10.0004 8.75 10H1.25Z" fill="url(#paint0_linear_1_5)"/>
<defs>
<linearGradient id="paint0_linear_1_5" x1="11.875" y1="10.625" x2="4.375" y2="2.5" gradientUnits="userSpaceOnUse">
<stop offset="0.235636" stop-color="#FEF9FF"/>
<stop offset="0.528913" stop-color="white"/>
<stop offset="1" stop-color="#BEABDE"/>
</linearGradient>
</defs>
</svg>
